Coordinates
version=1
nRows=16
nColumns=42
inDegrees=yes

Units are S.I. units (second, meters, Newtons, ...)
If the header above contains a line with 'inDegrees', this indicates whether rotational values are in degrees (yes) or radians (no).

endheader
time	pelvis_tilt	pelvis_list	pelvis_rotation	pelvis_tx	pelvis_ty	pelvis_tz	hip_flexion_r	hip_adduction_r	hip_rotation_r	knee_angle_r	knee_adduction_r	knee_angle_r_beta	ankle_angle_r	subtalar_angle_r	mtp_angle_r	hip_flexion_l	hip_adduction_l	hip_rotation_l	knee_angle_l	knee_adduction_l	knee_angle_l_beta	ankle_angle_l	subtalar_angle_l	mtp_angle_l	lumbar_extension	lumbar_bending	lumbar_rotation	arm_flex_r	arm_add_r	arm_rot_r	elbow_flex_r	pro_sup_r	wrist_flex_r	wrist_dev_r	arm_flex_l	arm_add_l	arm_rot_l	elbow_flex_l	pro_sup_l	wrist_flex_l	wrist_dev_l
      1.44000000	      5.39920008	     -2.36071620	      7.64520775	     -1.01223352	      0.84917467	      0.21692038	     25.95903288	      3.62290179	    -24.83259961	     27.46823583	    -10.73333870	      0.47941115	      3.72984373	      7.87720923	     -7.50601456	    -18.78414039	     -0.23540650	      0.30300098	     28.41243121	     -5.70517166	      0.49589047	     23.49992590	      8.72987920	     -7.50601456	    -21.51093006	      5.37210909	     -0.16301718	     -7.56771210	    -16.77728537	     11.72941282	     34.80379719	     90.00000001	      0.00000000	      0.00000000	     25.37914621	    -21.44377631	     16.24056807	     56.38406750	     90.00000001	      0.00000000	      0.00000000
      1.45000000	      5.46229031	     -2.83075949	      7.34136998	     -0.99809899	      0.85030931	      0.21892195	     25.41702727	      4.64294373	    -23.42400842	     28.49310932	    -10.51219450	      0.49729857	      3.68206031	      5.16007344	     -7.50560089	    -17.89146073	     -1.00522568	     -0.36029448	     31.61185446	     -5.69042303	      0.55173094	     21.17520566	      8.29420430	     -7.50560089	    -21.49734887	      5.92441346	      0.14315373	     -7.01809370	    -16.96869190	     11.81318257	     34.61759077	     90.00000001	      0.00000000	      0.00000000	     24.23081634	    -21.23278338	     15.77914563	     56.13038195	     90.00000001	      0.00000000	      0.00000000
      1.46000000	      5.71832983	     -3.33710080	      7.09928652	     -0.98367401	      0.85209988	      0.22095150	     24.40728313	      5.67236215	    -22.83467918	     29.00880557	    -10.48708851	      0.50629917	      4.42488325	      4.60749419	     -7.50550912	    -17.07326459	     -1.89695654	     -0.97674679	     34.88785673	     -5.66729390	      0.60890797	     18.41809725	      7.72767793	     -7.50550912	    -21.64269422	      6.52005147	      0.45665044	     -6.47372388	    -17.16810634	     11.80726907	     34.54467031	     90.00000001	      0.00000000	      0.00000000	     23.09167736	    -21.10773416	     15.66650209	     55.77532541	     90.00000001	      0.00000000	      0.00000000
      1.47000000	      5.54348591	     -3.74212001	      6.58337654	     -0.97005558	      0.85346857	      0.22341266	     23.87675694	      6.63552183	    -21.55703390	     29.56031307	    -10.17122974	      0.51592479	      4.55004899	      2.46707097	     -7.50518686	    -15.34124395	     -2.58352790	     -1.88592786	     38.83511250	     -5.71380324	      0.67780058	     15.92846028	      6.48018555	     -7.50518686	    -21.43299096	      6.87060713	      0.92899456	     -5.77782700	    -17.38952326	     12.02928781	     34.37312776	     90.00000001	      0.00000000	      0.00000000	     21.89720794	    -20.84864227	     15.31477449	     55.26812976	     90.00000001	      0.00000000	      0.00000000
      1.48000000	      5.65109603	     -4.22068256	      6.12758680	     -0.95615323	      0.85555834	      0.22584435	     22.71467418	      7.67851341	    -21.10652355	     29.44313675	    -10.11334197	      0.51387968	      5.27144933	      2.28627924	     -7.50505109	    -13.88205439	     -3.46104066	     -2.93477053	     42.60323512	     -5.87834106	      0.74356672	     13.38311661	      5.24409840	     -7.50505109	    -21.47983649	      7.32162308	      1.44578873	     -5.11498096	    -17.64080833	     12.08572115	     34.37974101	     90.00000001	      0.00000000	      0.00000000	     20.76903107	    -20.69021010	     15.44782915	     54.63819343	     90.00000001	      0.00000000	      0.00000000
      1.49000000	      5.79937483	     -4.59600005	      5.73723920	     -0.94248290	      0.85794106	      0.22813461	     21.26417295	      8.50650659	    -20.76157798	     28.97856791	     -9.86105933	      0.50577142	      6.32469783	      2.50287127	     -7.50498040	    -12.33184458	     -4.23834822	     -3.92361736	     46.33860462	     -6.15300325	      0.80876122	     11.22601296	      3.98785767	     -7.50498040	    -21.60155861	      7.66492810	      1.89530589	     -4.40349368	    -17.87730939	     12.11653945	     34.48339472	     90.00000001	      0.00000000	      0.00000000	     19.69261252	    -20.53188523	     15.70633524	     53.88603919	     90.00000001	      0.00000000	      0.00000000
      1.50000000	      5.60398990	     -4.78475093	      5.20484702	     -0.92945995	      0.85983065	      0.23062429	     20.38698312	      9.10527646	    -20.89179172	     28.69044234	    -10.02968956	      0.50074268	      7.05297982	      3.29419282	     -7.50474311	    -10.16397320	     -4.72308957	     -4.65386339	     50.33881822	     -6.26003284	      0.87857812	      9.34905323	      0.62641316	     -7.50474311	    -21.41375360	      7.69791399	      2.44024420	     -3.68266766	    -18.12632650	     12.34600434	     34.60185469	     90.00000001	      0.00000000	      0.00000000	     18.71479545	    -20.35258846	     16.06536157	     52.97223176	     90.00000001	      0.00000000	      0.00000000
      1.51000000	      5.66222341	     -4.89947592	      4.79976495	     -0.91640749	      0.86229791	      0.23287858	     18.98547840	      9.55872598	    -21.18720917	     28.02346194	    -10.09709372	      0.48910168	      8.12653734	      4.82743727	     -7.50442289	     -8.28868094	     -5.15181984	     -5.31714513	     53.93312862	     -6.43661506	      0.94131067	      7.76636529	     -2.83533180	     -7.50442289	    -21.50681625	      7.68181591	      2.92791877	     -2.93777011	    -18.34805843	     12.44050753	     34.84059895	     90.00000001	      0.00000000	      0.00000000	     17.84498136	    -20.23133655	     16.71784117	     51.98337927	     90.00000001	      0.00000000	      0.00000000
      1.52000000	      5.83277107	     -5.03014779	      4.40656239	     -0.90339980	      0.86503571	      0.23507848	     17.26488946	     10.08015422	    -21.03812186	     27.06121795	     -9.94951685	      0.47230735	      9.03911410	      5.74185641	     -7.50430898	     -6.49356608	     -5.67400851	     -6.65043639	     57.15057187	     -7.13271726	      0.99746565	      7.23475475	     -4.84014654	     -7.50430898	    -21.72570344	      7.67584012	      3.45388117	     -2.16134798	    -18.56732974	     12.41400791	     35.09864444	     90.00000001	      0.00000000	      0.00000000	     16.99434267	    -20.07223184	     17.35996824	     50.93163764	     90.00000001	      0.00000000	      0.00000000
      1.53000000	      5.87823293	     -4.95628205	      3.99739256	     -0.89083454	      0.86761190	      0.23728915	     15.85707263	     10.31411153	    -21.18843812	     26.33651714	    -10.03071058	      0.45965894	      9.77756013	      7.28934918	     -7.50413283	     -4.46189069	     -5.91935499	     -7.37214940	     60.22115072	     -7.34766586	      1.05105736	      6.22571163	     -8.32320651	     -7.50413283	    -21.85675935	      7.39699165	      4.01622895	     -1.42438094	    -18.78836764	     12.47733789	     35.50644799	     90.00000001	      0.00000000	      0.00000000	     16.34260626	    -19.99505651	     18.47237178	     49.73749918	     90.00000001	      0.00000000	      0.00000000
      1.54000000	      6.12010896	     -4.63126958	      3.83414239	     -0.87848730	      0.87068680	      0.23873985	     14.13431617	     10.05247937	    -21.29513849	     25.60644866	     -9.75950470	      0.44691684	     10.83406433	      8.76842553	     -7.50384023	     -2.66137732	     -5.68028132	     -7.39805237	     62.76385874	     -7.35059338	      1.09543599	      5.54045032	    -11.95984432	     -7.50384023	    -22.23369896	      6.93459211	      4.27460431	     -0.55463087	    -18.96556316	     12.48590556	     35.87186228	     90.00000001	      0.00000000	      0.00000000	     15.73531469	    -20.00321933	     19.64804224	     48.58057976	     90.00000001	      0.00000000	      0.00000000
      1.55000000	      6.34031910	     -4.38999081	      3.60986042	     -0.86611814	      0.87367162	      0.24031168	     12.32562842	     10.00773164	    -20.74406204	     24.68899772	     -9.35199725	      0.43090430	     11.50486386	      9.21849039	     -7.50375251	     -0.82743819	     -5.63197518	     -8.14804472	     64.86138418	     -7.82541814	      1.13204471	      6.04236718	    -12.94076994	     -7.50375251	    -22.57456975	      6.53054626	      4.59504038	      0.34847293	    -19.14220618	     12.47078732	     36.21799743	     90.00000001	      0.00000000	      0.00000000	     15.03185631	    -19.85529790	     20.38526096	     47.41504179	     90.00000001	      0.00000000	      0.00000000
      1.56000000	      6.51476239	     -4.07642950	      3.42317164	     -0.85398754	      0.87651473	      0.24170425	     10.58994895	      9.85987688	    -20.12411509	     23.77353530	     -8.94244643	      0.41492647	     12.08398942	      9.60096362	     -7.50367135	      1.10000837	     -5.40669894	     -8.54530614	     66.62657382	     -8.07585746	      1.16285308	      6.44855936	    -13.85314448	     -7.50367135	    -22.87095271	      6.05714354	      4.87573644	      1.26648344	    -19.34229183	     12.51983687	     36.63670008	     90.00000001	      0.00000000	      0.00000000	     14.41266546	    -19.76481443	     21.35870602	     46.18610896	     90.00000001	      0.00000000	      0.00000000
      1.57000000	      6.66087989	     -3.71431637	      3.27272558	     -0.84224881	      0.87926194	      0.24310080	      8.94865460	      9.69307052	    -19.51862366	     22.87717775	     -8.65490911	      0.39928208	     12.43959527	      9.78970109	     -7.50346973	      3.08934558	     -5.09359640	     -8.09921874	     68.09637090	     -7.51234985	      1.18850588	      6.30678074	    -15.23393444	     -7.50346973	    -23.18696621	      5.51494003	      5.19988482	      2.13902653	    -19.66165782	     12.83188537	     37.19615172	     90.00000001	      0.00000000	      0.00000000	     14.02608075	    -19.91851867	     23.40665133	     44.91200204	     90.00000001	      0.00000000	      0.00000000
      1.58000000	      6.75739883	     -3.21448591	      3.07909222	     -0.83054597	      0.88171918	      0.24440682	      7.45561712	      9.27684472	    -19.13425402	     22.16745648	     -8.36680402	      0.38689510	     12.84275653	      9.92804424	     -7.50341430	      5.09850034	     -4.54410607	     -8.21383161	     69.06948978	     -7.46097696	      1.20549001	      6.90697418	    -14.93866309	     -7.50341430	    -23.46637717	      4.80119664	      5.34552107	      3.11915970	    -19.78482584	     12.81750183	     37.70502840	     90.00000001	      0.00000000	      0.00000000	     13.23560882	    -19.85115371	     23.81126676	     44.04660665	     90.00000001	      0.00000000	      0.00000000
      1.59000000	      6.73880189	     -2.80718279	      2.89340512	     -0.81874504	      0.88373952	      0.24544478	      6.03335647	      8.95895715	    -18.73779560	     21.31987284	     -8.09561702	      0.37210198	     13.27675179	     10.14113964	     -7.50336145	      7.19160371	     -4.03242457	     -8.11469472	     69.68088070	     -7.19712082	      1.21616079	      7.41862342	    -14.62925298	     -7.50336145	    -23.54097178	      4.23769191	      5.50775065	      4.09991339	    -20.00657235	     12.86707952	     38.21989578	     90.00000001	      0.00000000	      0.00000000	     12.42013023	    -19.73173880	     24.40518811	     43.05318560	     90.00000001	      0.00000000	      0.00000000
